<mxfile host="Electron" modified="2023-11-23T15:06:04.702Z" agent="Mozilla/5.0 (X11; Linux x86_64) AppleWebKit/537.36 (KHTML, like Gecko) draw.io/22.1.2 Chrome/114.0.5735.289 Electron/25.9.4 Safari/537.36" etag="Dhl-EofsSTMJi-qJtPa4" version="22.1.2" type="device">
  <diagram name="PÃ¡gina-1" id="o76QhtmDc2ZPnAEuJpZu">
    <mxGraphModel dx="1566" dy="931" grid="1" gridSize="10" guides="1" tooltips="1" connect="1" arrows="1" fold="1" page="1" pageScale="1" pageWidth="827" pageHeight="1169" math="0" shadow="1">
      <root>
        <mxCell id="0" />
        <mxCell id="1" parent="0" />
        <mxCell id="jt44Ivr5OsOSJa6Pg4p1-19" style="rounded=0;orthogonalLoop=1;jettySize=auto;html=1;exitX=1;exitY=1;exitDx=0;exitDy=0;entryX=0;entryY=0;entryDx=0;entryDy=0;endArrow=none;endFill=0;startArrow=none;startFill=0;shadow=1;sketch=1;curveFitting=1;jiggle=2;" edge="1" parent="1" source="jt44Ivr5OsOSJa6Pg4p1-1" target="jt44Ivr5OsOSJa6Pg4p1-4">
          <mxGeometry relative="1" as="geometry" />
        </mxCell>
        <mxCell id="jt44Ivr5OsOSJa6Pg4p1-1" value="E" style="ellipse;whiteSpace=wrap;html=1;aspect=fixed;fontFamily=Victor mono;fontSize=24;shadow=1;sketch=1;curveFitting=1;jiggle=2;" vertex="1" parent="1">
          <mxGeometry x="24" y="160" width="60" height="60" as="geometry" />
        </mxCell>
        <mxCell id="jt44Ivr5OsOSJa6Pg4p1-10" style="rounded=0;orthogonalLoop=1;jettySize=auto;html=1;exitX=1;exitY=0.5;exitDx=0;exitDy=0;endArrow=none;endFill=0;startArrow=none;startFill=0;shadow=1;sketch=1;curveFitting=1;jiggle=2;" edge="1" parent="1" source="jt44Ivr5OsOSJa6Pg4p1-2" target="jt44Ivr5OsOSJa6Pg4p1-5">
          <mxGeometry relative="1" as="geometry" />
        </mxCell>
        <mxCell id="jt44Ivr5OsOSJa6Pg4p1-17" style="rounded=0;orthogonalLoop=1;jettySize=auto;html=1;exitX=0;exitY=0;exitDx=0;exitDy=0;entryX=1;entryY=1;entryDx=0;entryDy=0;endArrow=none;endFill=0;startArrow=none;startFill=0;shadow=1;sketch=1;curveFitting=1;jiggle=2;" edge="1" parent="1" source="jt44Ivr5OsOSJa6Pg4p1-2" target="jt44Ivr5OsOSJa6Pg4p1-3">
          <mxGeometry relative="1" as="geometry" />
        </mxCell>
        <mxCell id="jt44Ivr5OsOSJa6Pg4p1-2" value="F" style="ellipse;whiteSpace=wrap;html=1;aspect=fixed;fontFamily=Victor mono;fontSize=24;shadow=1;sketch=1;curveFitting=1;jiggle=2;" vertex="1" parent="1">
          <mxGeometry x="264" y="160" width="60" height="60" as="geometry" />
        </mxCell>
        <mxCell id="jt44Ivr5OsOSJa6Pg4p1-18" style="rounded=0;orthogonalLoop=1;jettySize=auto;html=1;exitX=0;exitY=1;exitDx=0;exitDy=0;entryX=1;entryY=0;entryDx=0;entryDy=0;endArrow=none;endFill=0;startArrow=none;startFill=0;shadow=1;sketch=1;curveFitting=1;jiggle=2;" edge="1" parent="1" source="jt44Ivr5OsOSJa6Pg4p1-3" target="jt44Ivr5OsOSJa6Pg4p1-1">
          <mxGeometry relative="1" as="geometry" />
        </mxCell>
        <mxCell id="jt44Ivr5OsOSJa6Pg4p1-3" value="C" style="ellipse;whiteSpace=wrap;html=1;aspect=fixed;fontFamily=Victor mono;fontSize=24;shadow=1;sketch=1;curveFitting=1;jiggle=2;" vertex="1" parent="1">
          <mxGeometry x="144" y="40" width="60" height="60" as="geometry" />
        </mxCell>
        <mxCell id="jt44Ivr5OsOSJa6Pg4p1-11" style="rounded=0;orthogonalLoop=1;jettySize=auto;html=1;exitX=1;exitY=0.5;exitDx=0;exitDy=0;endArrow=none;endFill=0;startArrow=none;startFill=0;shadow=1;sketch=1;curveFitting=1;jiggle=2;" edge="1" parent="1" source="jt44Ivr5OsOSJa6Pg4p1-4" target="jt44Ivr5OsOSJa6Pg4p1-9">
          <mxGeometry relative="1" as="geometry" />
        </mxCell>
        <mxCell id="jt44Ivr5OsOSJa6Pg4p1-20" style="rounded=0;orthogonalLoop=1;jettySize=auto;html=1;exitX=1;exitY=0;exitDx=0;exitDy=0;entryX=0;entryY=1;entryDx=0;entryDy=0;endArrow=none;endFill=0;startArrow=none;startFill=0;shadow=1;sketch=1;curveFitting=1;jiggle=2;" edge="1" parent="1" source="jt44Ivr5OsOSJa6Pg4p1-4" target="jt44Ivr5OsOSJa6Pg4p1-2">
          <mxGeometry relative="1" as="geometry" />
        </mxCell>
        <mxCell id="jt44Ivr5OsOSJa6Pg4p1-4" value="I" style="ellipse;whiteSpace=wrap;html=1;aspect=fixed;fontFamily=Victor mono;fontSize=24;shadow=1;sketch=1;curveFitting=1;jiggle=2;" vertex="1" parent="1">
          <mxGeometry x="144" y="280" width="60" height="60" as="geometry" />
        </mxCell>
        <mxCell id="jt44Ivr5OsOSJa6Pg4p1-13" style="rounded=0;orthogonalLoop=1;jettySize=auto;html=1;exitX=1;exitY=1;exitDx=0;exitDy=0;entryX=0;entryY=0;entryDx=0;entryDy=0;endArrow=none;endFill=0;startArrow=none;startFill=0;shadow=1;sketch=1;curveFitting=1;jiggle=2;" edge="1" parent="1" source="jt44Ivr5OsOSJa6Pg4p1-5" target="jt44Ivr5OsOSJa6Pg4p1-8">
          <mxGeometry relative="1" as="geometry" />
        </mxCell>
        <mxCell id="jt44Ivr5OsOSJa6Pg4p1-5" value="G" style="ellipse;whiteSpace=wrap;html=1;aspect=fixed;fontFamily=Victor mono;fontSize=24;shadow=1;sketch=1;curveFitting=1;jiggle=2;" vertex="1" parent="1">
          <mxGeometry x="504" y="160" width="60" height="60" as="geometry" />
        </mxCell>
        <mxCell id="jt44Ivr5OsOSJa6Pg4p1-15" style="rounded=0;orthogonalLoop=1;jettySize=auto;html=1;exitX=0;exitY=0;exitDx=0;exitDy=0;entryX=1;entryY=1;entryDx=0;entryDy=0;endArrow=none;endFill=0;startArrow=none;startFill=0;shadow=1;sketch=1;curveFitting=1;jiggle=2;" edge="1" parent="1" source="jt44Ivr5OsOSJa6Pg4p1-6" target="jt44Ivr5OsOSJa6Pg4p1-7">
          <mxGeometry relative="1" as="geometry" />
        </mxCell>
        <mxCell id="jt44Ivr5OsOSJa6Pg4p1-6" value="H" style="ellipse;whiteSpace=wrap;html=1;aspect=fixed;fontFamily=Victor mono;fontSize=24;shadow=1;sketch=1;curveFitting=1;jiggle=2;" vertex="1" parent="1">
          <mxGeometry x="744" y="160" width="60" height="60" as="geometry" />
        </mxCell>
        <mxCell id="jt44Ivr5OsOSJa6Pg4p1-16" style="rounded=0;orthogonalLoop=1;jettySize=auto;html=1;exitX=0;exitY=1;exitDx=0;exitDy=0;entryX=1;entryY=0;entryDx=0;entryDy=0;endArrow=none;endFill=0;startArrow=none;startFill=0;shadow=1;sketch=1;curveFitting=1;jiggle=2;" edge="1" parent="1" source="jt44Ivr5OsOSJa6Pg4p1-7" target="jt44Ivr5OsOSJa6Pg4p1-5">
          <mxGeometry relative="1" as="geometry" />
        </mxCell>
        <mxCell id="jt44Ivr5OsOSJa6Pg4p1-7" value="D" style="ellipse;whiteSpace=wrap;html=1;aspect=fixed;fontFamily=Victor mono;fontSize=24;shadow=1;sketch=1;curveFitting=1;jiggle=2;" vertex="1" parent="1">
          <mxGeometry x="624" y="40" width="60" height="60" as="geometry" />
        </mxCell>
        <mxCell id="jt44Ivr5OsOSJa6Pg4p1-14" style="rounded=0;orthogonalLoop=1;jettySize=auto;html=1;exitX=1;exitY=0;exitDx=0;exitDy=0;entryX=0;entryY=1;entryDx=0;entryDy=0;endArrow=none;endFill=0;startArrow=none;startFill=0;shadow=1;sketch=1;curveFitting=1;jiggle=2;" edge="1" parent="1" source="jt44Ivr5OsOSJa6Pg4p1-8" target="jt44Ivr5OsOSJa6Pg4p1-6">
          <mxGeometry relative="1" as="geometry" />
        </mxCell>
        <mxCell id="jt44Ivr5OsOSJa6Pg4p1-8" value="J" style="ellipse;whiteSpace=wrap;html=1;aspect=fixed;fontFamily=Victor mono;fontSize=24;shadow=1;sketch=1;curveFitting=1;jiggle=2;" vertex="1" parent="1">
          <mxGeometry x="624" y="280" width="60" height="60" as="geometry" />
        </mxCell>
        <mxCell id="jt44Ivr5OsOSJa6Pg4p1-12" style="rounded=0;orthogonalLoop=1;jettySize=auto;html=1;exitX=1;exitY=0.5;exitDx=0;exitDy=0;entryX=0;entryY=0.5;entryDx=0;entryDy=0;endArrow=none;endFill=0;startArrow=none;startFill=0;shadow=1;sketch=1;curveFitting=1;jiggle=2;" edge="1" parent="1" source="jt44Ivr5OsOSJa6Pg4p1-9" target="jt44Ivr5OsOSJa6Pg4p1-8">
          <mxGeometry relative="1" as="geometry" />
        </mxCell>
        <mxCell id="jt44Ivr5OsOSJa6Pg4p1-9" value="K" style="ellipse;whiteSpace=wrap;html=1;aspect=fixed;fontFamily=Victor mono;fontSize=24;shadow=1;sketch=1;curveFitting=1;jiggle=2;" vertex="1" parent="1">
          <mxGeometry x="384" y="280" width="60" height="60" as="geometry" />
        </mxCell>
        <mxCell id="jt44Ivr5OsOSJa6Pg4p1-21" style="rounded=0;orthogonalLoop=1;jettySize=auto;html=1;exitX=1;exitY=1;exitDx=0;exitDy=0;entryX=0;entryY=0;entryDx=0;entryDy=0;endArrow=none;endFill=0;startArrow=none;startFill=0;shadow=1;sketch=1;curveFitting=1;jiggle=2;" edge="1" parent="1" source="jt44Ivr5OsOSJa6Pg4p1-22" target="jt44Ivr5OsOSJa6Pg4p1-30">
          <mxGeometry relative="1" as="geometry" />
        </mxCell>
        <mxCell id="jt44Ivr5OsOSJa6Pg4p1-22" value="E" style="ellipse;whiteSpace=wrap;html=1;aspect=fixed;fontFamily=Victor mono;fontSize=24;fillColor=#CC99FF;shadow=1;sketch=1;curveFitting=1;jiggle=2;" vertex="1" parent="1">
          <mxGeometry x="24" y="600" width="60" height="60" as="geometry" />
        </mxCell>
        <mxCell id="jt44Ivr5OsOSJa6Pg4p1-23" style="rounded=0;orthogonalLoop=1;jettySize=auto;html=1;exitX=1;exitY=0.5;exitDx=0;exitDy=0;endArrow=none;endFill=0;startArrow=none;startFill=0;shadow=1;sketch=1;curveFitting=1;jiggle=2;" edge="1" parent="1" source="jt44Ivr5OsOSJa6Pg4p1-25" target="jt44Ivr5OsOSJa6Pg4p1-32">
          <mxGeometry relative="1" as="geometry" />
        </mxCell>
        <mxCell id="jt44Ivr5OsOSJa6Pg4p1-24" style="rounded=0;orthogonalLoop=1;jettySize=auto;html=1;exitX=0;exitY=0;exitDx=0;exitDy=0;entryX=1;entryY=1;entryDx=0;entryDy=0;endArrow=none;endFill=0;startArrow=none;startFill=0;shadow=1;sketch=1;curveFitting=1;jiggle=2;" edge="1" parent="1" source="jt44Ivr5OsOSJa6Pg4p1-25" target="jt44Ivr5OsOSJa6Pg4p1-27">
          <mxGeometry relative="1" as="geometry" />
        </mxCell>
        <mxCell id="jt44Ivr5OsOSJa6Pg4p1-25" value="F" style="ellipse;whiteSpace=wrap;html=1;aspect=fixed;fontFamily=Victor mono;fontSize=24;fillColor=#CC99FF;shadow=1;sketch=1;curveFitting=1;jiggle=2;" vertex="1" parent="1">
          <mxGeometry x="264" y="600" width="60" height="60" as="geometry" />
        </mxCell>
        <mxCell id="jt44Ivr5OsOSJa6Pg4p1-26" style="rounded=0;orthogonalLoop=1;jettySize=auto;html=1;exitX=0;exitY=1;exitDx=0;exitDy=0;entryX=1;entryY=0;entryDx=0;entryDy=0;endArrow=none;endFill=0;startArrow=none;startFill=0;shadow=1;sketch=1;curveFitting=1;jiggle=2;" edge="1" parent="1" source="jt44Ivr5OsOSJa6Pg4p1-27" target="jt44Ivr5OsOSJa6Pg4p1-22">
          <mxGeometry relative="1" as="geometry" />
        </mxCell>
        <mxCell id="jt44Ivr5OsOSJa6Pg4p1-27" value="C" style="ellipse;whiteSpace=wrap;html=1;aspect=fixed;fontFamily=Victor mono;fontSize=24;shadow=1;sketch=1;curveFitting=1;jiggle=2;" vertex="1" parent="1">
          <mxGeometry x="144" y="480" width="60" height="60" as="geometry" />
        </mxCell>
        <mxCell id="jt44Ivr5OsOSJa6Pg4p1-28" style="rounded=0;orthogonalLoop=1;jettySize=auto;html=1;exitX=1;exitY=0.5;exitDx=0;exitDy=0;endArrow=none;endFill=0;startArrow=none;startFill=0;shadow=1;sketch=1;curveFitting=1;jiggle=2;" edge="1" parent="1" source="jt44Ivr5OsOSJa6Pg4p1-30" target="jt44Ivr5OsOSJa6Pg4p1-40">
          <mxGeometry relative="1" as="geometry" />
        </mxCell>
        <mxCell id="jt44Ivr5OsOSJa6Pg4p1-29" style="rounded=0;orthogonalLoop=1;jettySize=auto;html=1;exitX=1;exitY=0;exitDx=0;exitDy=0;entryX=0;entryY=1;entryDx=0;entryDy=0;endArrow=none;endFill=0;startArrow=none;startFill=0;shadow=1;sketch=1;curveFitting=1;jiggle=2;" edge="1" parent="1" source="jt44Ivr5OsOSJa6Pg4p1-30" target="jt44Ivr5OsOSJa6Pg4p1-25">
          <mxGeometry relative="1" as="geometry" />
        </mxCell>
        <mxCell id="jt44Ivr5OsOSJa6Pg4p1-30" value="I" style="ellipse;whiteSpace=wrap;html=1;aspect=fixed;fontFamily=Victor mono;fontSize=24;shadow=1;sketch=1;curveFitting=1;jiggle=2;" vertex="1" parent="1">
          <mxGeometry x="144" y="720" width="60" height="60" as="geometry" />
        </mxCell>
        <mxCell id="jt44Ivr5OsOSJa6Pg4p1-31" style="rounded=0;orthogonalLoop=1;jettySize=auto;html=1;exitX=1;exitY=1;exitDx=0;exitDy=0;entryX=0;entryY=0;entryDx=0;entryDy=0;endArrow=none;endFill=0;startArrow=none;startFill=0;shadow=1;sketch=1;curveFitting=1;jiggle=2;" edge="1" parent="1" source="jt44Ivr5OsOSJa6Pg4p1-32" target="jt44Ivr5OsOSJa6Pg4p1-38">
          <mxGeometry relative="1" as="geometry" />
        </mxCell>
        <mxCell id="jt44Ivr5OsOSJa6Pg4p1-32" value="G" style="ellipse;whiteSpace=wrap;html=1;aspect=fixed;fontFamily=Victor mono;fontSize=24;shadow=1;sketch=1;curveFitting=1;jiggle=2;" vertex="1" parent="1">
          <mxGeometry x="504" y="600" width="60" height="60" as="geometry" />
        </mxCell>
        <mxCell id="jt44Ivr5OsOSJa6Pg4p1-33" style="rounded=0;orthogonalLoop=1;jettySize=auto;html=1;exitX=0;exitY=0;exitDx=0;exitDy=0;entryX=1;entryY=1;entryDx=0;entryDy=0;endArrow=none;endFill=0;startArrow=none;startFill=0;shadow=1;sketch=1;curveFitting=1;jiggle=2;" edge="1" parent="1" source="jt44Ivr5OsOSJa6Pg4p1-34" target="jt44Ivr5OsOSJa6Pg4p1-36">
          <mxGeometry relative="1" as="geometry" />
        </mxCell>
        <mxCell id="jt44Ivr5OsOSJa6Pg4p1-34" value="H" style="ellipse;whiteSpace=wrap;html=1;aspect=fixed;fontFamily=Victor mono;fontSize=24;shadow=1;sketch=1;curveFitting=1;jiggle=2;" vertex="1" parent="1">
          <mxGeometry x="744" y="600" width="60" height="60" as="geometry" />
        </mxCell>
        <mxCell id="jt44Ivr5OsOSJa6Pg4p1-35" style="rounded=0;orthogonalLoop=1;jettySize=auto;html=1;exitX=0;exitY=1;exitDx=0;exitDy=0;entryX=1;entryY=0;entryDx=0;entryDy=0;endArrow=none;endFill=0;startArrow=none;startFill=0;shadow=1;sketch=1;curveFitting=1;jiggle=2;" edge="1" parent="1" source="jt44Ivr5OsOSJa6Pg4p1-36" target="jt44Ivr5OsOSJa6Pg4p1-32">
          <mxGeometry relative="1" as="geometry" />
        </mxCell>
        <mxCell id="jt44Ivr5OsOSJa6Pg4p1-36" value="D" style="ellipse;whiteSpace=wrap;html=1;aspect=fixed;fontFamily=Victor mono;fontSize=24;shadow=1;sketch=1;curveFitting=1;jiggle=2;" vertex="1" parent="1">
          <mxGeometry x="624" y="480" width="60" height="60" as="geometry" />
        </mxCell>
        <mxCell id="jt44Ivr5OsOSJa6Pg4p1-37" style="rounded=0;orthogonalLoop=1;jettySize=auto;html=1;exitX=1;exitY=0;exitDx=0;exitDy=0;entryX=0;entryY=1;entryDx=0;entryDy=0;endArrow=none;endFill=0;startArrow=none;startFill=0;shadow=1;sketch=1;curveFitting=1;jiggle=2;" edge="1" parent="1" source="jt44Ivr5OsOSJa6Pg4p1-38" target="jt44Ivr5OsOSJa6Pg4p1-34">
          <mxGeometry relative="1" as="geometry" />
        </mxCell>
        <mxCell id="jt44Ivr5OsOSJa6Pg4p1-38" value="J" style="ellipse;whiteSpace=wrap;html=1;aspect=fixed;fontFamily=Victor mono;fontSize=24;shadow=1;sketch=1;curveFitting=1;jiggle=2;" vertex="1" parent="1">
          <mxGeometry x="624" y="720" width="60" height="60" as="geometry" />
        </mxCell>
        <mxCell id="jt44Ivr5OsOSJa6Pg4p1-39" style="rounded=0;orthogonalLoop=1;jettySize=auto;html=1;exitX=1;exitY=0.5;exitDx=0;exitDy=0;entryX=0;entryY=0.5;entryDx=0;entryDy=0;endArrow=none;endFill=0;startArrow=none;startFill=0;shadow=1;sketch=1;curveFitting=1;jiggle=2;" edge="1" parent="1" source="jt44Ivr5OsOSJa6Pg4p1-40" target="jt44Ivr5OsOSJa6Pg4p1-38">
          <mxGeometry relative="1" as="geometry" />
        </mxCell>
        <mxCell id="jt44Ivr5OsOSJa6Pg4p1-40" value="K" style="ellipse;whiteSpace=wrap;html=1;aspect=fixed;fontFamily=Victor mono;fontSize=24;shadow=1;sketch=1;curveFitting=1;jiggle=2;" vertex="1" parent="1">
          <mxGeometry x="384" y="720" width="60" height="60" as="geometry" />
        </mxCell>
        <mxCell id="jt44Ivr5OsOSJa6Pg4p1-41" value="Se toman a E y F como early adopters" style="text;html=1;strokeColor=none;fillColor=none;align=center;verticalAlign=middle;whiteSpace=wrap;rounded=0;fontFamily=Victor mono;fontSize=20;shadow=1;sketch=1;curveFitting=1;jiggle=2;" vertex="1" parent="1">
          <mxGeometry x="284" y="400" width="260" height="30" as="geometry" />
        </mxCell>
        <mxCell id="jt44Ivr5OsOSJa6Pg4p1-42" value="Los nodos que tengan al menos la mitad de sus vecinos como adopters del comportamiento A, adoptarÃ¡n tambiÃ©n el mismo comportamiento" style="text;html=1;strokeColor=none;fillColor=none;align=center;verticalAlign=middle;whiteSpace=wrap;rounded=0;fontFamily=Victor mono;fontSize=20;shadow=1;sketch=1;curveFitting=1;jiggle=2;" vertex="1" parent="1">
          <mxGeometry x="161" y="860" width="506" height="30" as="geometry" />
        </mxCell>
        <mxCell id="jt44Ivr5OsOSJa6Pg4p1-43" style="rounded=0;orthogonalLoop=1;jettySize=auto;html=1;exitX=1;exitY=1;exitDx=0;exitDy=0;entryX=0;entryY=0;entryDx=0;entryDy=0;endArrow=none;endFill=0;startArrow=none;startFill=0;shadow=1;sketch=1;curveFitting=1;jiggle=2;" edge="1" parent="1" source="jt44Ivr5OsOSJa6Pg4p1-44" target="jt44Ivr5OsOSJa6Pg4p1-52">
          <mxGeometry relative="1" as="geometry" />
        </mxCell>
        <mxCell id="jt44Ivr5OsOSJa6Pg4p1-44" value="E" style="ellipse;whiteSpace=wrap;html=1;aspect=fixed;fontFamily=Victor mono;fontSize=24;fillColor=#CC99FF;shadow=1;sketch=1;curveFitting=1;jiggle=2;" vertex="1" parent="1">
          <mxGeometry x="24" y="1070" width="60" height="60" as="geometry" />
        </mxCell>
        <mxCell id="jt44Ivr5OsOSJa6Pg4p1-45" style="rounded=0;orthogonalLoop=1;jettySize=auto;html=1;exitX=1;exitY=0.5;exitDx=0;exitDy=0;endArrow=none;endFill=0;startArrow=none;startFill=0;shadow=1;sketch=1;curveFitting=1;jiggle=2;" edge="1" parent="1" source="jt44Ivr5OsOSJa6Pg4p1-47" target="jt44Ivr5OsOSJa6Pg4p1-54">
          <mxGeometry relative="1" as="geometry" />
        </mxCell>
        <mxCell id="jt44Ivr5OsOSJa6Pg4p1-46" style="rounded=0;orthogonalLoop=1;jettySize=auto;html=1;exitX=0;exitY=0;exitDx=0;exitDy=0;entryX=1;entryY=1;entryDx=0;entryDy=0;endArrow=none;endFill=0;startArrow=none;startFill=0;shadow=1;sketch=1;curveFitting=1;jiggle=2;" edge="1" parent="1" source="jt44Ivr5OsOSJa6Pg4p1-47" target="jt44Ivr5OsOSJa6Pg4p1-49">
          <mxGeometry relative="1" as="geometry" />
        </mxCell>
        <mxCell id="jt44Ivr5OsOSJa6Pg4p1-47" value="F" style="ellipse;whiteSpace=wrap;html=1;aspect=fixed;fontFamily=Victor mono;fontSize=24;fillColor=#CC99FF;shadow=1;sketch=1;curveFitting=1;jiggle=2;" vertex="1" parent="1">
          <mxGeometry x="264" y="1070" width="60" height="60" as="geometry" />
        </mxCell>
        <mxCell id="jt44Ivr5OsOSJa6Pg4p1-48" style="rounded=0;orthogonalLoop=1;jettySize=auto;html=1;exitX=0;exitY=1;exitDx=0;exitDy=0;entryX=1;entryY=0;entryDx=0;entryDy=0;endArrow=none;endFill=0;startArrow=none;startFill=0;shadow=1;sketch=1;curveFitting=1;jiggle=2;" edge="1" parent="1" source="jt44Ivr5OsOSJa6Pg4p1-49" target="jt44Ivr5OsOSJa6Pg4p1-44">
          <mxGeometry relative="1" as="geometry" />
        </mxCell>
        <mxCell id="jt44Ivr5OsOSJa6Pg4p1-49" value="C" style="ellipse;whiteSpace=wrap;html=1;aspect=fixed;fontFamily=Victor mono;fontSize=24;fillColor=default;shadow=1;sketch=1;curveFitting=1;jiggle=2;" vertex="1" parent="1">
          <mxGeometry x="144" y="950" width="60" height="60" as="geometry" />
        </mxCell>
        <mxCell id="jt44Ivr5OsOSJa6Pg4p1-50" style="rounded=0;orthogonalLoop=1;jettySize=auto;html=1;exitX=1;exitY=0.5;exitDx=0;exitDy=0;endArrow=none;endFill=0;startArrow=none;startFill=0;shadow=1;sketch=1;curveFitting=1;jiggle=2;" edge="1" parent="1" source="jt44Ivr5OsOSJa6Pg4p1-52" target="jt44Ivr5OsOSJa6Pg4p1-62">
          <mxGeometry relative="1" as="geometry" />
        </mxCell>
        <mxCell id="jt44Ivr5OsOSJa6Pg4p1-51" style="rounded=0;orthogonalLoop=1;jettySize=auto;html=1;exitX=1;exitY=0;exitDx=0;exitDy=0;entryX=0;entryY=1;entryDx=0;entryDy=0;endArrow=none;endFill=0;startArrow=none;startFill=0;shadow=1;sketch=1;curveFitting=1;jiggle=2;" edge="1" parent="1" source="jt44Ivr5OsOSJa6Pg4p1-52" target="jt44Ivr5OsOSJa6Pg4p1-47">
          <mxGeometry relative="1" as="geometry" />
        </mxCell>
        <mxCell id="jt44Ivr5OsOSJa6Pg4p1-52" value="I" style="ellipse;whiteSpace=wrap;html=1;aspect=fixed;fontFamily=Victor mono;fontSize=24;fillColor=default;shadow=1;sketch=1;curveFitting=1;jiggle=2;" vertex="1" parent="1">
          <mxGeometry x="144" y="1190" width="60" height="60" as="geometry" />
        </mxCell>
        <mxCell id="jt44Ivr5OsOSJa6Pg4p1-53" style="rounded=0;orthogonalLoop=1;jettySize=auto;html=1;exitX=1;exitY=1;exitDx=0;exitDy=0;entryX=0;entryY=0;entryDx=0;entryDy=0;endArrow=none;endFill=0;startArrow=none;startFill=0;shadow=1;sketch=1;curveFitting=1;jiggle=2;" edge="1" parent="1" source="jt44Ivr5OsOSJa6Pg4p1-54" target="jt44Ivr5OsOSJa6Pg4p1-60">
          <mxGeometry relative="1" as="geometry" />
        </mxCell>
        <mxCell id="jt44Ivr5OsOSJa6Pg4p1-54" value="G" style="ellipse;whiteSpace=wrap;html=1;aspect=fixed;fontFamily=Victor mono;fontSize=24;shadow=1;sketch=1;curveFitting=1;jiggle=2;" vertex="1" parent="1">
          <mxGeometry x="504" y="1070" width="60" height="60" as="geometry" />
        </mxCell>
        <mxCell id="jt44Ivr5OsOSJa6Pg4p1-55" style="rounded=0;orthogonalLoop=1;jettySize=auto;html=1;exitX=0;exitY=0;exitDx=0;exitDy=0;entryX=1;entryY=1;entryDx=0;entryDy=0;endArrow=none;endFill=0;startArrow=none;startFill=0;shadow=1;sketch=1;curveFitting=1;jiggle=2;" edge="1" parent="1" source="jt44Ivr5OsOSJa6Pg4p1-56" target="jt44Ivr5OsOSJa6Pg4p1-58">
          <mxGeometry relative="1" as="geometry" />
        </mxCell>
        <mxCell id="jt44Ivr5OsOSJa6Pg4p1-56" value="H" style="ellipse;whiteSpace=wrap;html=1;aspect=fixed;fontFamily=Victor mono;fontSize=24;shadow=1;sketch=1;curveFitting=1;jiggle=2;" vertex="1" parent="1">
          <mxGeometry x="744" y="1070" width="60" height="60" as="geometry" />
        </mxCell>
        <mxCell id="jt44Ivr5OsOSJa6Pg4p1-57" style="rounded=0;orthogonalLoop=1;jettySize=auto;html=1;exitX=0;exitY=1;exitDx=0;exitDy=0;entryX=1;entryY=0;entryDx=0;entryDy=0;endArrow=none;endFill=0;startArrow=none;startFill=0;shadow=1;sketch=1;curveFitting=1;jiggle=2;" edge="1" parent="1" source="jt44Ivr5OsOSJa6Pg4p1-58" target="jt44Ivr5OsOSJa6Pg4p1-54">
          <mxGeometry relative="1" as="geometry" />
        </mxCell>
        <mxCell id="jt44Ivr5OsOSJa6Pg4p1-58" value="D" style="ellipse;whiteSpace=wrap;html=1;aspect=fixed;fontFamily=Victor mono;fontSize=24;shadow=1;sketch=1;curveFitting=1;jiggle=2;" vertex="1" parent="1">
          <mxGeometry x="624" y="950" width="60" height="60" as="geometry" />
        </mxCell>
        <mxCell id="jt44Ivr5OsOSJa6Pg4p1-59" style="rounded=0;orthogonalLoop=1;jettySize=auto;html=1;exitX=1;exitY=0;exitDx=0;exitDy=0;entryX=0;entryY=1;entryDx=0;entryDy=0;endArrow=none;endFill=0;startArrow=none;startFill=0;shadow=1;sketch=1;curveFitting=1;jiggle=2;" edge="1" parent="1" source="jt44Ivr5OsOSJa6Pg4p1-60" target="jt44Ivr5OsOSJa6Pg4p1-56">
          <mxGeometry relative="1" as="geometry" />
        </mxCell>
        <mxCell id="jt44Ivr5OsOSJa6Pg4p1-60" value="J" style="ellipse;whiteSpace=wrap;html=1;aspect=fixed;fontFamily=Victor mono;fontSize=24;shadow=1;sketch=1;curveFitting=1;jiggle=2;" vertex="1" parent="1">
          <mxGeometry x="624" y="1190" width="60" height="60" as="geometry" />
        </mxCell>
        <mxCell id="jt44Ivr5OsOSJa6Pg4p1-61" style="rounded=0;orthogonalLoop=1;jettySize=auto;html=1;exitX=1;exitY=0.5;exitDx=0;exitDy=0;entryX=0;entryY=0.5;entryDx=0;entryDy=0;endArrow=none;endFill=0;startArrow=none;startFill=0;shadow=1;sketch=1;curveFitting=1;jiggle=2;" edge="1" parent="1" source="jt44Ivr5OsOSJa6Pg4p1-62" target="jt44Ivr5OsOSJa6Pg4p1-60">
          <mxGeometry relative="1" as="geometry" />
        </mxCell>
        <mxCell id="jt44Ivr5OsOSJa6Pg4p1-62" value="K" style="ellipse;whiteSpace=wrap;html=1;aspect=fixed;fontFamily=Victor mono;fontSize=24;shadow=1;sketch=1;curveFitting=1;jiggle=2;" vertex="1" parent="1">
          <mxGeometry x="384" y="1190" width="60" height="60" as="geometry" />
        </mxCell>
        <mxCell id="jt44Ivr5OsOSJa6Pg4p1-63" value="2/2" style="text;html=1;strokeColor=none;fillColor=none;align=center;verticalAlign=middle;whiteSpace=wrap;rounded=0;fontFamily=Victor mono;fontSize=14;fontColor=#CC99FF;shadow=1;sketch=1;curveFitting=1;jiggle=2;" vertex="1" parent="1">
          <mxGeometry x="190" y="940" width="60" height="30" as="geometry" />
        </mxCell>
        <mxCell id="jt44Ivr5OsOSJa6Pg4p1-84" value="2/3" style="text;html=1;strokeColor=none;fillColor=none;align=center;verticalAlign=middle;whiteSpace=wrap;rounded=0;fontFamily=Victor mono;fontSize=14;fontColor=#CC99FF;shadow=1;sketch=1;curveFitting=1;jiggle=2;" vertex="1" parent="1">
          <mxGeometry x="101" y="1230" width="60" height="30" as="geometry" />
        </mxCell>
        <mxCell id="jt44Ivr5OsOSJa6Pg4p1-85" value="1/3" style="text;html=1;strokeColor=none;fillColor=none;align=center;verticalAlign=middle;whiteSpace=wrap;rounded=0;fontFamily=Victor mono;fontSize=14;shadow=1;sketch=1;curveFitting=1;jiggle=2;" vertex="1" parent="1">
          <mxGeometry x="460" y="1060" width="60" height="30" as="geometry" />
        </mxCell>
        <mxCell id="jt44Ivr5OsOSJa6Pg4p1-86" value="0/2" style="text;html=1;strokeColor=none;fillColor=none;align=center;verticalAlign=middle;whiteSpace=wrap;rounded=0;fontFamily=Victor mono;fontSize=14;shadow=1;sketch=1;curveFitting=1;jiggle=2;" vertex="1" parent="1">
          <mxGeometry x="384" y="1250" width="60" height="30" as="geometry" />
        </mxCell>
        <mxCell id="jt44Ivr5OsOSJa6Pg4p1-87" value="0/3" style="text;html=1;strokeColor=none;fillColor=none;align=center;verticalAlign=middle;whiteSpace=wrap;rounded=0;fontFamily=Victor mono;fontSize=14;shadow=1;sketch=1;curveFitting=1;jiggle=2;" vertex="1" parent="1">
          <mxGeometry x="667" y="1240" width="60" height="30" as="geometry" />
        </mxCell>
        <mxCell id="jt44Ivr5OsOSJa6Pg4p1-88" value="0/2" style="text;html=1;strokeColor=none;fillColor=none;align=center;verticalAlign=middle;whiteSpace=wrap;rounded=0;fontFamily=Victor mono;fontSize=14;shadow=1;sketch=1;curveFitting=1;jiggle=2;" vertex="1" parent="1">
          <mxGeometry x="667" y="930" width="60" height="30" as="geometry" />
        </mxCell>
        <mxCell id="jt44Ivr5OsOSJa6Pg4p1-89" value="0/2" style="text;html=1;strokeColor=none;fillColor=none;align=center;verticalAlign=middle;whiteSpace=wrap;rounded=0;fontFamily=Victor mono;fontSize=14;shadow=1;sketch=1;curveFitting=1;jiggle=2;" vertex="1" parent="1">
          <mxGeometry x="760" y="1040" width="60" height="30" as="geometry" />
        </mxCell>
        <mxCell id="jt44Ivr5OsOSJa6Pg4p1-90" style="rounded=0;orthogonalLoop=1;jettySize=auto;html=1;exitX=1;exitY=1;exitDx=0;exitDy=0;entryX=0;entryY=0;entryDx=0;entryDy=0;endArrow=none;endFill=0;startArrow=none;startFill=0;shadow=1;sketch=1;curveFitting=1;jiggle=2;" edge="1" parent="1" source="jt44Ivr5OsOSJa6Pg4p1-91" target="jt44Ivr5OsOSJa6Pg4p1-99">
          <mxGeometry relative="1" as="geometry" />
        </mxCell>
        <mxCell id="jt44Ivr5OsOSJa6Pg4p1-91" value="E" style="ellipse;whiteSpace=wrap;html=1;aspect=fixed;fontFamily=Victor mono;fontSize=24;fillColor=#CC99FF;shadow=1;sketch=1;curveFitting=1;jiggle=2;" vertex="1" parent="1">
          <mxGeometry x="16" y="1460" width="60" height="60" as="geometry" />
        </mxCell>
        <mxCell id="jt44Ivr5OsOSJa6Pg4p1-92" style="rounded=0;orthogonalLoop=1;jettySize=auto;html=1;exitX=1;exitY=0.5;exitDx=0;exitDy=0;endArrow=none;endFill=0;startArrow=none;startFill=0;shadow=1;sketch=1;curveFitting=1;jiggle=2;" edge="1" parent="1" source="jt44Ivr5OsOSJa6Pg4p1-94" target="jt44Ivr5OsOSJa6Pg4p1-101">
          <mxGeometry relative="1" as="geometry" />
        </mxCell>
        <mxCell id="jt44Ivr5OsOSJa6Pg4p1-93" style="rounded=0;orthogonalLoop=1;jettySize=auto;html=1;exitX=0;exitY=0;exitDx=0;exitDy=0;entryX=1;entryY=1;entryDx=0;entryDy=0;endArrow=none;endFill=0;startArrow=none;startFill=0;shadow=1;sketch=1;curveFitting=1;jiggle=2;" edge="1" parent="1" source="jt44Ivr5OsOSJa6Pg4p1-94" target="jt44Ivr5OsOSJa6Pg4p1-96">
          <mxGeometry relative="1" as="geometry" />
        </mxCell>
        <mxCell id="jt44Ivr5OsOSJa6Pg4p1-94" value="F" style="ellipse;whiteSpace=wrap;html=1;aspect=fixed;fontFamily=Victor mono;fontSize=24;fillColor=#CC99FF;shadow=1;sketch=1;curveFitting=1;jiggle=2;" vertex="1" parent="1">
          <mxGeometry x="256" y="1460" width="60" height="60" as="geometry" />
        </mxCell>
        <mxCell id="jt44Ivr5OsOSJa6Pg4p1-95" style="rounded=0;orthogonalLoop=1;jettySize=auto;html=1;exitX=0;exitY=1;exitDx=0;exitDy=0;entryX=1;entryY=0;entryDx=0;entryDy=0;endArrow=none;endFill=0;startArrow=none;startFill=0;shadow=1;sketch=1;curveFitting=1;jiggle=2;" edge="1" parent="1" source="jt44Ivr5OsOSJa6Pg4p1-96" target="jt44Ivr5OsOSJa6Pg4p1-91">
          <mxGeometry relative="1" as="geometry" />
        </mxCell>
        <mxCell id="jt44Ivr5OsOSJa6Pg4p1-96" value="C" style="ellipse;whiteSpace=wrap;html=1;aspect=fixed;fontFamily=Victor mono;fontSize=24;fillColor=#CC99FF;shadow=1;sketch=1;curveFitting=1;jiggle=2;" vertex="1" parent="1">
          <mxGeometry x="136" y="1340" width="60" height="60" as="geometry" />
        </mxCell>
        <mxCell id="jt44Ivr5OsOSJa6Pg4p1-97" style="rounded=0;orthogonalLoop=1;jettySize=auto;html=1;exitX=1;exitY=0.5;exitDx=0;exitDy=0;endArrow=none;endFill=0;startArrow=none;startFill=0;shadow=1;sketch=1;curveFitting=1;jiggle=2;" edge="1" parent="1" source="jt44Ivr5OsOSJa6Pg4p1-99" target="jt44Ivr5OsOSJa6Pg4p1-109">
          <mxGeometry relative="1" as="geometry" />
        </mxCell>
        <mxCell id="jt44Ivr5OsOSJa6Pg4p1-98" style="rounded=0;orthogonalLoop=1;jettySize=auto;html=1;exitX=1;exitY=0;exitDx=0;exitDy=0;entryX=0;entryY=1;entryDx=0;entryDy=0;endArrow=none;endFill=0;startArrow=none;startFill=0;shadow=1;sketch=1;curveFitting=1;jiggle=2;" edge="1" parent="1" source="jt44Ivr5OsOSJa6Pg4p1-99" target="jt44Ivr5OsOSJa6Pg4p1-94">
          <mxGeometry relative="1" as="geometry" />
        </mxCell>
        <mxCell id="jt44Ivr5OsOSJa6Pg4p1-99" value="I" style="ellipse;whiteSpace=wrap;html=1;aspect=fixed;fontFamily=Victor mono;fontSize=24;fillColor=#CC99FF;shadow=1;sketch=1;curveFitting=1;jiggle=2;" vertex="1" parent="1">
          <mxGeometry x="136" y="1580" width="60" height="60" as="geometry" />
        </mxCell>
        <mxCell id="jt44Ivr5OsOSJa6Pg4p1-100" style="rounded=0;orthogonalLoop=1;jettySize=auto;html=1;exitX=1;exitY=1;exitDx=0;exitDy=0;entryX=0;entryY=0;entryDx=0;entryDy=0;endArrow=none;endFill=0;startArrow=none;startFill=0;shadow=1;sketch=1;curveFitting=1;jiggle=2;" edge="1" parent="1" source="jt44Ivr5OsOSJa6Pg4p1-101" target="jt44Ivr5OsOSJa6Pg4p1-107">
          <mxGeometry relative="1" as="geometry" />
        </mxCell>
        <mxCell id="jt44Ivr5OsOSJa6Pg4p1-101" value="G" style="ellipse;whiteSpace=wrap;html=1;aspect=fixed;fontFamily=Victor mono;fontSize=24;shadow=1;sketch=1;curveFitting=1;jiggle=2;" vertex="1" parent="1">
          <mxGeometry x="496" y="1460" width="60" height="60" as="geometry" />
        </mxCell>
        <mxCell id="jt44Ivr5OsOSJa6Pg4p1-102" style="rounded=0;orthogonalLoop=1;jettySize=auto;html=1;exitX=0;exitY=0;exitDx=0;exitDy=0;entryX=1;entryY=1;entryDx=0;entryDy=0;endArrow=none;endFill=0;startArrow=none;startFill=0;shadow=1;sketch=1;curveFitting=1;jiggle=2;" edge="1" parent="1" source="jt44Ivr5OsOSJa6Pg4p1-103" target="jt44Ivr5OsOSJa6Pg4p1-105">
          <mxGeometry relative="1" as="geometry" />
        </mxCell>
        <mxCell id="jt44Ivr5OsOSJa6Pg4p1-103" value="H" style="ellipse;whiteSpace=wrap;html=1;aspect=fixed;fontFamily=Victor mono;fontSize=24;shadow=1;sketch=1;curveFitting=1;jiggle=2;" vertex="1" parent="1">
          <mxGeometry x="736" y="1460" width="60" height="60" as="geometry" />
        </mxCell>
        <mxCell id="jt44Ivr5OsOSJa6Pg4p1-104" style="rounded=0;orthogonalLoop=1;jettySize=auto;html=1;exitX=0;exitY=1;exitDx=0;exitDy=0;entryX=1;entryY=0;entryDx=0;entryDy=0;endArrow=none;endFill=0;startArrow=none;startFill=0;shadow=1;sketch=1;curveFitting=1;jiggle=2;" edge="1" parent="1" source="jt44Ivr5OsOSJa6Pg4p1-105" target="jt44Ivr5OsOSJa6Pg4p1-101">
          <mxGeometry relative="1" as="geometry" />
        </mxCell>
        <mxCell id="jt44Ivr5OsOSJa6Pg4p1-105" value="D" style="ellipse;whiteSpace=wrap;html=1;aspect=fixed;fontFamily=Victor mono;fontSize=24;shadow=1;sketch=1;curveFitting=1;jiggle=2;" vertex="1" parent="1">
          <mxGeometry x="616" y="1340" width="60" height="60" as="geometry" />
        </mxCell>
        <mxCell id="jt44Ivr5OsOSJa6Pg4p1-106" style="rounded=0;orthogonalLoop=1;jettySize=auto;html=1;exitX=1;exitY=0;exitDx=0;exitDy=0;entryX=0;entryY=1;entryDx=0;entryDy=0;endArrow=none;endFill=0;startArrow=none;startFill=0;shadow=1;sketch=1;curveFitting=1;jiggle=2;" edge="1" parent="1" source="jt44Ivr5OsOSJa6Pg4p1-107" target="jt44Ivr5OsOSJa6Pg4p1-103">
          <mxGeometry relative="1" as="geometry" />
        </mxCell>
        <mxCell id="jt44Ivr5OsOSJa6Pg4p1-107" value="J" style="ellipse;whiteSpace=wrap;html=1;aspect=fixed;fontFamily=Victor mono;fontSize=24;shadow=1;sketch=1;curveFitting=1;jiggle=2;" vertex="1" parent="1">
          <mxGeometry x="616" y="1580" width="60" height="60" as="geometry" />
        </mxCell>
        <mxCell id="jt44Ivr5OsOSJa6Pg4p1-108" style="rounded=0;orthogonalLoop=1;jettySize=auto;html=1;exitX=1;exitY=0.5;exitDx=0;exitDy=0;entryX=0;entryY=0.5;entryDx=0;entryDy=0;endArrow=none;endFill=0;startArrow=none;startFill=0;shadow=1;sketch=1;curveFitting=1;jiggle=2;" edge="1" parent="1" source="jt44Ivr5OsOSJa6Pg4p1-109" target="jt44Ivr5OsOSJa6Pg4p1-107">
          <mxGeometry relative="1" as="geometry" />
        </mxCell>
        <mxCell id="jt44Ivr5OsOSJa6Pg4p1-109" value="K" style="ellipse;whiteSpace=wrap;html=1;aspect=fixed;fontFamily=Victor mono;fontSize=24;shadow=1;sketch=1;curveFitting=1;jiggle=2;" vertex="1" parent="1">
          <mxGeometry x="376" y="1580" width="60" height="60" as="geometry" />
        </mxCell>
        <mxCell id="jt44Ivr5OsOSJa6Pg4p1-112" value="1/3" style="text;html=1;strokeColor=none;fillColor=none;align=center;verticalAlign=middle;whiteSpace=wrap;rounded=0;fontFamily=Victor mono;fontSize=14;shadow=1;sketch=1;curveFitting=1;jiggle=2;" vertex="1" parent="1">
          <mxGeometry x="452" y="1450" width="60" height="30" as="geometry" />
        </mxCell>
        <mxCell id="jt44Ivr5OsOSJa6Pg4p1-113" value="1/2" style="text;html=1;strokeColor=none;fillColor=none;align=center;verticalAlign=middle;whiteSpace=wrap;rounded=0;fontFamily=Victor mono;fontSize=14;fontColor=#CC99FF;shadow=1;sketch=1;curveFitting=1;jiggle=2;" vertex="1" parent="1">
          <mxGeometry x="376" y="1640" width="60" height="30" as="geometry" />
        </mxCell>
        <mxCell id="jt44Ivr5OsOSJa6Pg4p1-114" value="0/3" style="text;html=1;strokeColor=none;fillColor=none;align=center;verticalAlign=middle;whiteSpace=wrap;rounded=0;fontFamily=Victor mono;fontSize=14;shadow=1;sketch=1;curveFitting=1;jiggle=2;" vertex="1" parent="1">
          <mxGeometry x="659" y="1630" width="60" height="30" as="geometry" />
        </mxCell>
        <mxCell id="jt44Ivr5OsOSJa6Pg4p1-115" value="0/2" style="text;html=1;strokeColor=none;fillColor=none;align=center;verticalAlign=middle;whiteSpace=wrap;rounded=0;fontFamily=Victor mono;fontSize=14;shadow=1;sketch=1;curveFitting=1;jiggle=2;" vertex="1" parent="1">
          <mxGeometry x="659" y="1320" width="60" height="30" as="geometry" />
        </mxCell>
        <mxCell id="jt44Ivr5OsOSJa6Pg4p1-116" value="0/2" style="text;html=1;strokeColor=none;fillColor=none;align=center;verticalAlign=middle;whiteSpace=wrap;rounded=0;fontFamily=Victor mono;fontSize=14;shadow=1;sketch=1;curveFitting=1;jiggle=2;" vertex="1" parent="1">
          <mxGeometry x="752" y="1430" width="60" height="30" as="geometry" />
        </mxCell>
        <mxCell id="jt44Ivr5OsOSJa6Pg4p1-117" style="rounded=0;orthogonalLoop=1;jettySize=auto;html=1;exitX=1;exitY=1;exitDx=0;exitDy=0;entryX=0;entryY=0;entryDx=0;entryDy=0;endArrow=none;endFill=0;startArrow=none;startFill=0;shadow=1;sketch=1;curveFitting=1;jiggle=2;" edge="1" parent="1" source="jt44Ivr5OsOSJa6Pg4p1-118" target="jt44Ivr5OsOSJa6Pg4p1-126">
          <mxGeometry relative="1" as="geometry" />
        </mxCell>
        <mxCell id="jt44Ivr5OsOSJa6Pg4p1-118" value="E" style="ellipse;whiteSpace=wrap;html=1;aspect=fixed;fontFamily=Victor mono;fontSize=24;fillColor=#CC99FF;shadow=1;sketch=1;curveFitting=1;jiggle=2;" vertex="1" parent="1">
          <mxGeometry x="16" y="1840" width="60" height="60" as="geometry" />
        </mxCell>
        <mxCell id="jt44Ivr5OsOSJa6Pg4p1-119" style="rounded=0;orthogonalLoop=1;jettySize=auto;html=1;exitX=1;exitY=0.5;exitDx=0;exitDy=0;endArrow=none;endFill=0;startArrow=none;startFill=0;shadow=1;sketch=1;curveFitting=1;jiggle=2;" edge="1" parent="1" source="jt44Ivr5OsOSJa6Pg4p1-121" target="jt44Ivr5OsOSJa6Pg4p1-128">
          <mxGeometry relative="1" as="geometry" />
        </mxCell>
        <mxCell id="jt44Ivr5OsOSJa6Pg4p1-120" style="rounded=0;orthogonalLoop=1;jettySize=auto;html=1;exitX=0;exitY=0;exitDx=0;exitDy=0;entryX=1;entryY=1;entryDx=0;entryDy=0;endArrow=none;endFill=0;startArrow=none;startFill=0;shadow=1;sketch=1;curveFitting=1;jiggle=2;" edge="1" parent="1" source="jt44Ivr5OsOSJa6Pg4p1-121" target="jt44Ivr5OsOSJa6Pg4p1-123">
          <mxGeometry relative="1" as="geometry" />
        </mxCell>
        <mxCell id="jt44Ivr5OsOSJa6Pg4p1-121" value="F" style="ellipse;whiteSpace=wrap;html=1;aspect=fixed;fontFamily=Victor mono;fontSize=24;fillColor=#CC99FF;shadow=1;sketch=1;curveFitting=1;jiggle=2;" vertex="1" parent="1">
          <mxGeometry x="256" y="1840" width="60" height="60" as="geometry" />
        </mxCell>
        <mxCell id="jt44Ivr5OsOSJa6Pg4p1-122" style="rounded=0;orthogonalLoop=1;jettySize=auto;html=1;exitX=0;exitY=1;exitDx=0;exitDy=0;entryX=1;entryY=0;entryDx=0;entryDy=0;endArrow=none;endFill=0;startArrow=none;startFill=0;shadow=1;sketch=1;curveFitting=1;jiggle=2;" edge="1" parent="1" source="jt44Ivr5OsOSJa6Pg4p1-123" target="jt44Ivr5OsOSJa6Pg4p1-118">
          <mxGeometry relative="1" as="geometry" />
        </mxCell>
        <mxCell id="jt44Ivr5OsOSJa6Pg4p1-123" value="C" style="ellipse;whiteSpace=wrap;html=1;aspect=fixed;fontFamily=Victor mono;fontSize=24;fillColor=#CC99FF;shadow=1;sketch=1;curveFitting=1;jiggle=2;" vertex="1" parent="1">
          <mxGeometry x="136" y="1720" width="60" height="60" as="geometry" />
        </mxCell>
        <mxCell id="jt44Ivr5OsOSJa6Pg4p1-124" style="rounded=0;orthogonalLoop=1;jettySize=auto;html=1;exitX=1;exitY=0.5;exitDx=0;exitDy=0;endArrow=none;endFill=0;startArrow=none;startFill=0;shadow=1;sketch=1;curveFitting=1;jiggle=2;" edge="1" parent="1" source="jt44Ivr5OsOSJa6Pg4p1-126" target="jt44Ivr5OsOSJa6Pg4p1-136">
          <mxGeometry relative="1" as="geometry" />
        </mxCell>
        <mxCell id="jt44Ivr5OsOSJa6Pg4p1-125" style="rounded=0;orthogonalLoop=1;jettySize=auto;html=1;exitX=1;exitY=0;exitDx=0;exitDy=0;entryX=0;entryY=1;entryDx=0;entryDy=0;endArrow=none;endFill=0;startArrow=none;startFill=0;shadow=1;sketch=1;curveFitting=1;jiggle=2;" edge="1" parent="1" source="jt44Ivr5OsOSJa6Pg4p1-126" target="jt44Ivr5OsOSJa6Pg4p1-121">
          <mxGeometry relative="1" as="geometry" />
        </mxCell>
        <mxCell id="jt44Ivr5OsOSJa6Pg4p1-126" value="I" style="ellipse;whiteSpace=wrap;html=1;aspect=fixed;fontFamily=Victor mono;fontSize=24;fillColor=#CC99FF;shadow=1;sketch=1;curveFitting=1;jiggle=2;" vertex="1" parent="1">
          <mxGeometry x="136" y="1960" width="60" height="60" as="geometry" />
        </mxCell>
        <mxCell id="jt44Ivr5OsOSJa6Pg4p1-127" style="rounded=0;orthogonalLoop=1;jettySize=auto;html=1;exitX=1;exitY=1;exitDx=0;exitDy=0;entryX=0;entryY=0;entryDx=0;entryDy=0;endArrow=none;endFill=0;startArrow=none;startFill=0;shadow=1;sketch=1;curveFitting=1;jiggle=2;" edge="1" parent="1" source="jt44Ivr5OsOSJa6Pg4p1-128" target="jt44Ivr5OsOSJa6Pg4p1-134">
          <mxGeometry relative="1" as="geometry" />
        </mxCell>
        <mxCell id="jt44Ivr5OsOSJa6Pg4p1-128" value="G" style="ellipse;whiteSpace=wrap;html=1;aspect=fixed;fontFamily=Victor mono;fontSize=24;shadow=1;sketch=1;curveFitting=1;jiggle=2;" vertex="1" parent="1">
          <mxGeometry x="496" y="1840" width="60" height="60" as="geometry" />
        </mxCell>
        <mxCell id="jt44Ivr5OsOSJa6Pg4p1-129" style="rounded=0;orthogonalLoop=1;jettySize=auto;html=1;exitX=0;exitY=0;exitDx=0;exitDy=0;entryX=1;entryY=1;entryDx=0;entryDy=0;endArrow=none;endFill=0;startArrow=none;startFill=0;shadow=1;sketch=1;curveFitting=1;jiggle=2;" edge="1" parent="1" source="jt44Ivr5OsOSJa6Pg4p1-130" target="jt44Ivr5OsOSJa6Pg4p1-132">
          <mxGeometry relative="1" as="geometry" />
        </mxCell>
        <mxCell id="jt44Ivr5OsOSJa6Pg4p1-130" value="H" style="ellipse;whiteSpace=wrap;html=1;aspect=fixed;fontFamily=Victor mono;fontSize=24;shadow=1;sketch=1;curveFitting=1;jiggle=2;" vertex="1" parent="1">
          <mxGeometry x="736" y="1840" width="60" height="60" as="geometry" />
        </mxCell>
        <mxCell id="jt44Ivr5OsOSJa6Pg4p1-131" style="rounded=0;orthogonalLoop=1;jettySize=auto;html=1;exitX=0;exitY=1;exitDx=0;exitDy=0;entryX=1;entryY=0;entryDx=0;entryDy=0;endArrow=none;endFill=0;startArrow=none;startFill=0;shadow=1;sketch=1;curveFitting=1;jiggle=2;" edge="1" parent="1" source="jt44Ivr5OsOSJa6Pg4p1-132" target="jt44Ivr5OsOSJa6Pg4p1-128">
          <mxGeometry relative="1" as="geometry" />
        </mxCell>
        <mxCell id="jt44Ivr5OsOSJa6Pg4p1-132" value="D" style="ellipse;whiteSpace=wrap;html=1;aspect=fixed;fontFamily=Victor mono;fontSize=24;shadow=1;sketch=1;curveFitting=1;jiggle=2;" vertex="1" parent="1">
          <mxGeometry x="616" y="1720" width="60" height="60" as="geometry" />
        </mxCell>
        <mxCell id="jt44Ivr5OsOSJa6Pg4p1-133" style="rounded=0;orthogonalLoop=1;jettySize=auto;html=1;exitX=1;exitY=0;exitDx=0;exitDy=0;entryX=0;entryY=1;entryDx=0;entryDy=0;endArrow=none;endFill=0;startArrow=none;startFill=0;shadow=1;sketch=1;curveFitting=1;jiggle=2;" edge="1" parent="1" source="jt44Ivr5OsOSJa6Pg4p1-134" target="jt44Ivr5OsOSJa6Pg4p1-130">
          <mxGeometry relative="1" as="geometry" />
        </mxCell>
        <mxCell id="jt44Ivr5OsOSJa6Pg4p1-134" value="J" style="ellipse;whiteSpace=wrap;html=1;aspect=fixed;fontFamily=Victor mono;fontSize=24;shadow=1;sketch=1;curveFitting=1;jiggle=2;" vertex="1" parent="1">
          <mxGeometry x="616" y="1960" width="60" height="60" as="geometry" />
        </mxCell>
        <mxCell id="jt44Ivr5OsOSJa6Pg4p1-135" style="rounded=0;orthogonalLoop=1;jettySize=auto;html=1;exitX=1;exitY=0.5;exitDx=0;exitDy=0;entryX=0;entryY=0.5;entryDx=0;entryDy=0;endArrow=none;endFill=0;startArrow=none;startFill=0;shadow=1;sketch=1;curveFitting=1;jiggle=2;" edge="1" parent="1" source="jt44Ivr5OsOSJa6Pg4p1-136" target="jt44Ivr5OsOSJa6Pg4p1-134">
          <mxGeometry relative="1" as="geometry" />
        </mxCell>
        <mxCell id="jt44Ivr5OsOSJa6Pg4p1-136" value="K" style="ellipse;whiteSpace=wrap;html=1;aspect=fixed;fontFamily=Victor mono;fontSize=24;fillColor=#CC99FF;shadow=1;sketch=1;curveFitting=1;jiggle=2;" vertex="1" parent="1">
          <mxGeometry x="376" y="1960" width="60" height="60" as="geometry" />
        </mxCell>
        <mxCell id="jt44Ivr5OsOSJa6Pg4p1-137" value="1/3" style="text;html=1;strokeColor=none;fillColor=none;align=center;verticalAlign=middle;whiteSpace=wrap;rounded=0;fontFamily=Victor mono;fontSize=14;shadow=1;sketch=1;curveFitting=1;jiggle=2;" vertex="1" parent="1">
          <mxGeometry x="452" y="1830" width="60" height="30" as="geometry" />
        </mxCell>
        <mxCell id="jt44Ivr5OsOSJa6Pg4p1-139" value="1/3" style="text;html=1;strokeColor=none;fillColor=none;align=center;verticalAlign=middle;whiteSpace=wrap;rounded=0;fontFamily=Victor mono;fontSize=14;shadow=1;sketch=1;curveFitting=1;jiggle=2;" vertex="1" parent="1">
          <mxGeometry x="659" y="2010" width="60" height="30" as="geometry" />
        </mxCell>
        <mxCell id="jt44Ivr5OsOSJa6Pg4p1-140" value="0/2" style="text;html=1;strokeColor=none;fillColor=none;align=center;verticalAlign=middle;whiteSpace=wrap;rounded=0;fontFamily=Victor mono;fontSize=14;shadow=1;sketch=1;curveFitting=1;jiggle=2;" vertex="1" parent="1">
          <mxGeometry x="752" y="1810" width="60" height="30" as="geometry" />
        </mxCell>
        <mxCell id="jt44Ivr5OsOSJa6Pg4p1-141" value="0/2" style="text;html=1;strokeColor=none;fillColor=none;align=center;verticalAlign=middle;whiteSpace=wrap;rounded=0;fontFamily=Victor mono;fontSize=14;shadow=1;sketch=1;curveFitting=1;jiggle=2;" vertex="1" parent="1">
          <mxGeometry x="659" y="1700" width="60" height="30" as="geometry" />
        </mxCell>
      </root>
    </mxGraphModel>
  </diagram>
</mxfile>
